<mxfile host="app.diagrams.net" modified="2023-07-12T04:01:44.937Z" agent="Mozilla/5.0 (Windows NT 10.0; Win64; x64) AppleWebKit/537.36 (KHTML, like Gecko) Chrome/114.0.0.0 Safari/537.36" version="21.6.1" etag="CAbaLH8t6yvimhr_hV0m" type="github">
  <diagram name="第 1 页" id="vC0-Exh1lriQ7ujDxx9F">
    <mxGraphModel>
      <root>
        <mxCell id="0" />
        <mxCell id="1" parent="0" />
      </root>
    </mxGraphModel>
  </diagram>
</mxfile>
